P2
# Created by GIMP version 2.10.34 PNM plug-in
20 20
255
209
207
125
72
111
196
208
209
210
211
174
153
162
214
215
216
216
215
214
214
209
198
66
80
113
136
188
199
198
183
138
153
158
216
215
216
215
215
214
215
205
177
54
68
101
67
94
92
132
147
130
142
161
216
218
216
216
216
214
213
173
143
58
37
55
47
71
128
135
156
146
174
165
216
221
218
218
216
215
214
137
107
42
35
41
46
90
102
116
106
141
171
166
200
225
224
220
217
216
214
172
93
34
31
31
51
75
17
56
54
128
145
76
152
214
227
223
217
216
214
192
81
29
24
23
84
116
13
54
34
79
107
82
165
206
226
226
218
216
214
187
75
23
28
51
107
136
132
61
55
64
75
105
125
210
225
225
223
215
212
183
85
23
38
85
109
112
122
100
96
122
138
177
154
214
232
228
220
210
192
182
102
32
67
107
118
126
115
96
99
157
162
170
177
223
232
226
218
195
185
174
106
69
97
115
128
143
143
128
137
150
180
195
220
233
225
212
190
194
216
165
105
91
109
124
144
142
148
146
150
170
193
222
235
227
203
178
192
222
235
162
104
96
114
129
130
140
138
142
169
185
189
221
232
201
200
201
224
234
219
127
97
96
117
130
142
157
163
162
185
199
213
229
229
183
224
232
226
218
213
84
89
98
115
129
143
163
187
203
204
207
221
232
230
200
234
230
219
216
216
60
86
97
108
122
138
158
181
201
202
214
229
235
235
215
228
227
220
216
214
53
86
97
106
120
132
149
178
196
206
219
233
238
238
229
225
227
220
215
213
54
84
94
100
115
125
145
176
197
209
222
234
240
239
232
217
226
219
215
213
54
87
96
100
111
126
147
174
196
206
221
233
237
237
233
208
224
219
213
213
52
88
106
109
115
128
146
171
190
204
222
233
236
237
234
195
219
218
214
212
